<svg width="311" height="53" viewBox="0 0 311 53" fill="none" xmlns="http://www.w3.org/2000/svg">
<path d="M0 32V0.690216H1.59202V32H0ZM6.36809 32V0.690216H7.96011V32H6.36809ZM9.55214 32V0.690216H12.7362V32H9.55214ZM4.77607 36.6169H8.27852C9.62289 36.6169 10.6312 36.8822 11.3034 37.4129C12.0109 37.9435 12.3647 38.6865 12.3647 39.6417C12.3647 40.2431 12.2055 40.7915 11.8871 41.2868C11.5333 41.7821 11.0734 42.1359 10.5073 42.3481C11.2149 42.5958 11.781 43.0026 12.2055 43.5687C12.63 44.1701 12.8423 44.8069 12.8423 45.4791C12.8423 46.5405 12.4532 47.3895 11.6748 48.0264C10.9319 48.6278 9.78209 48.9285 8.22545 48.9285H4.77607V36.6169ZM8.06625 41.7113C10.0121 41.7113 10.985 41.0568 10.985 39.7478C10.985 39.1818 10.755 38.7219 10.2951 38.3681C9.87054 37.9789 9.19835 37.7843 8.27852 37.7843H6.10275V41.7113H8.06625ZM8.49079 47.7079C10.4012 47.7079 11.3564 46.9296 11.3564 45.373C11.3564 43.7102 10.2774 42.8788 8.11932 42.8788H6.10275V47.7079H8.49079Z" fill="white"/>
<path d="M17.5164 32V0.690216H20.7004V32H17.5164ZM22.2925 32V0.690216H25.4765V32H22.2925ZM27.0685 32V0.690216H33.4366V32H27.0685ZM30.0934 39.907C29.9872 40.4377 29.8634 40.9684 29.7219 41.4991C29.545 42.0297 29.3151 42.7373 29.032 43.6218L26.7501 49.9368C26.4671 50.7859 26.0779 51.405 25.5826 51.7941C25.0873 52.1833 24.5036 52.3779 23.8314 52.3779C22.9823 52.3779 22.2925 52.1125 21.7618 51.5819L22.5047 50.4675L22.6109 50.5205C22.6462 50.662 22.6993 50.7682 22.7701 50.8389C22.8408 50.9451 22.9646 51.0335 23.1415 51.1043C23.3892 51.175 23.6545 51.2104 23.9376 51.2104C24.3975 51.2104 24.7866 51.0335 25.105 50.6797C25.3881 50.3259 25.6711 49.7599 25.9541 48.9816L22.2394 39.907H23.7253L26.5379 47.1242L27.7053 43.5156C27.9884 42.5958 28.2006 41.9059 28.3421 41.446C28.4837 40.9507 28.5898 40.4377 28.6606 39.907H30.0934Z" fill="white"/>
<path d="M35.0328 32V0.690216H38.2168V32H35.0328ZM39.8089 32V0.690216H42.9929V32H39.8089ZM46.1769 32V0.690216H49.361V32H46.1769Z" fill="white"/>
<path d="M52.5492 32V0.690216H54.1412V32H52.5492ZM57.3252 32V0.690216H60.5093V32H57.3252ZM62.1013 32V0.690216H66.8774V32H62.1013ZM57.7498 42.0828H64.8608V43.4095H57.7498V42.0828Z" fill="white"/>
<path d="M70.0656 32V0.690216H73.2496V32H70.0656ZM74.8416 32V0.690216H79.6177V32H74.8416ZM84.3938 32V0.690216H85.9858V32H84.3938ZM77.9726 37.8374H74.5232V36.6169H83.014V37.8374H79.4054V48.9285H77.9726V37.8374Z" fill="white"/>
<path d="M87.582 32V0.690216H89.174V32H87.582ZM92.358 32V0.690216H93.9501V32H92.358ZM95.5421 32V0.690216H98.7261V32H95.5421ZM96.232 39.6948C97.5056 39.6948 98.4785 40.0309 99.1507 40.703C99.8229 41.3752 100.159 42.525 100.159 44.1524V48.9285H98.62V47.5487C98.0893 48.6101 97.0633 49.1408 95.5421 49.1408C94.5515 49.1408 93.7732 48.9108 93.2071 48.4509C92.6411 47.991 92.358 47.3895 92.358 46.6466C92.358 46.0098 92.5703 45.4614 92.9949 45.0015C93.384 44.5416 93.9324 44.1701 94.6399 43.8871C95.3121 43.6394 96.0728 43.5156 96.9218 43.5156C97.6648 43.5156 98.337 43.551 98.9384 43.6218C98.8676 42.6312 98.6023 41.9236 98.1424 41.4991C97.6825 41.0745 97.0103 40.8623 96.1258 40.8623C95.6659 40.8623 95.2414 40.9507 94.8522 41.1276C94.4277 41.3045 94.0385 41.5521 93.6847 41.8705L92.9949 40.9684C93.8439 40.1193 94.923 39.6948 96.232 39.6948ZM95.7013 48.0794C96.6919 48.0794 97.4702 47.7787 98.0363 47.1773C98.6023 46.6112 98.903 45.7975 98.9384 44.7362C98.337 44.63 97.7002 44.577 97.028 44.577C96.0374 44.577 95.2414 44.7539 94.6399 45.1076C94.0739 45.426 93.7909 45.9213 93.7909 46.5935C93.7909 47.5841 94.4277 48.0794 95.7013 48.0794Z" fill="white"/>
<path d="M105.098 32V0.690216H108.282V32H105.098ZM114.65 32V0.690216H116.243V32H114.65ZM119.427 32V0.690216H121.019V32H119.427ZM112.846 44.4178L111.679 45.5322V48.9285H110.246V35.8208H111.838V35.927C111.767 36.0331 111.714 36.1216 111.679 36.1923C111.679 36.2985 111.679 36.4577 111.679 36.6699V44.0463L116.189 39.854C116.508 39.9247 116.862 39.9601 117.251 39.9601H117.728L113.961 43.5687L118.365 48.9285L116.561 48.9816L112.846 44.4178Z" fill="white"/>
<path d="M122.615 32V0.690216H124.207V32H122.615ZM125.799 32V0.690216H132.167V32H125.799ZM135.351 32V0.690216H136.943V32H135.351ZM131.371 49.1408C129.85 49.1408 128.576 48.6632 127.55 47.7079L128.346 46.3813L128.452 46.169L128.611 46.2751C128.611 46.3105 128.611 46.3636 128.611 46.4343C128.647 46.5405 128.682 46.6289 128.718 46.6997C128.788 46.8058 128.859 46.9119 128.93 47.0181C129.248 47.3011 129.602 47.5311 129.991 47.7079C130.38 47.8495 130.858 47.9202 131.424 47.9202C132.132 47.9202 132.698 47.7964 133.122 47.5487C133.511 47.3011 133.706 46.9473 133.706 46.4874C133.706 46.0982 133.547 45.7798 133.228 45.5322C132.91 45.2845 132.308 45.0369 131.424 44.7892C129.16 44.1171 128.028 43.1795 128.028 41.9767C128.028 41.2691 128.328 40.7207 128.93 40.3316C129.496 39.907 130.31 39.6948 131.371 39.6948C132.185 39.6948 132.874 39.8186 133.441 40.0662C134.007 40.2785 134.52 40.6323 134.979 41.1276L134.13 42.0828L134.024 42.242L133.918 42.1359C133.918 41.9944 133.883 41.8882 133.812 41.8175C133.777 41.7113 133.688 41.6052 133.547 41.4991C133.228 41.2514 132.892 41.0745 132.538 40.9684C132.149 40.8269 131.778 40.7561 131.424 40.7561C130.858 40.7561 130.38 40.8623 129.991 41.0745C129.637 41.2514 129.46 41.5168 129.46 41.8705C129.46 42.2243 129.655 42.525 130.044 42.7727C130.398 43.0557 131.052 43.3387 132.008 43.6218C133.14 43.9755 133.936 44.347 134.396 44.7362C134.891 45.1253 135.139 45.656 135.139 46.3282C135.139 47.1419 134.82 47.8141 134.183 48.3448C133.547 48.8754 132.609 49.1408 131.371 49.1408Z" fill="white"/>
<path d="M140.131 32V0.690216H141.723V32H140.131ZM144.907 32V0.690216H148.091V32H144.907ZM154.459 32V0.690216H156.051V32H154.459ZM145.385 35.8208H146.977V35.927C146.871 36.0331 146.818 36.1216 146.818 36.1923C146.782 36.2985 146.765 36.4577 146.765 36.6699V41.4991C147.118 40.9684 147.561 40.5262 148.091 40.1724C148.622 39.854 149.17 39.6948 149.736 39.6948C150.585 39.6948 151.258 39.9955 151.753 40.5969C152.248 41.1983 152.496 42.1536 152.496 43.4626V48.9285H151.116V43.5156C151.116 42.5958 150.957 41.9413 150.639 41.5521C150.32 41.1276 149.913 40.9153 149.418 40.9153C148.993 40.9153 148.587 41.0391 148.197 41.2868C147.773 41.4991 147.437 41.8352 147.189 42.2951C146.906 42.7196 146.765 43.1972 146.765 43.7279V48.9285H145.385V35.8208Z" fill="white"/>
<path d="M157.648 32V0.690216H159.24V32H157.648ZM162.424 32V0.690216H164.016V32H162.424ZM165.608 32V0.690216H168.792V32H165.608ZM166.298 39.6948C167.571 39.6948 168.544 40.0309 169.216 40.703C169.888 41.3752 170.225 42.525 170.225 44.1524V48.9285H168.686V47.5487C168.155 48.6101 167.129 49.1408 165.608 49.1408C164.617 49.1408 163.839 48.9108 163.273 48.4509C162.707 47.991 162.424 47.3895 162.424 46.6466C162.424 46.0098 162.636 45.4614 163.06 45.0015C163.45 44.5416 163.998 44.1701 164.706 43.8871C165.378 43.6394 166.138 43.5156 166.987 43.5156C167.73 43.5156 168.403 43.551 169.004 43.6218C168.933 42.6312 168.668 41.9236 168.208 41.4991C167.748 41.0745 167.076 40.8623 166.191 40.8623C165.731 40.8623 165.307 40.9507 164.918 41.1276C164.493 41.3045 164.104 41.5521 163.75 41.8705L163.06 40.9684C163.909 40.1193 164.989 39.6948 166.298 39.6948ZM165.767 48.0794C166.757 48.0794 167.536 47.7787 168.102 47.1773C168.668 46.6112 168.969 45.7975 169.004 44.7362C168.403 44.63 167.766 44.577 167.094 44.577C166.103 44.577 165.307 44.7539 164.706 45.1076C164.139 45.426 163.856 45.9213 163.856 46.5935C163.856 47.5841 164.493 48.0794 165.767 48.0794Z" fill="white"/>
<path d="M175.164 32V0.690216H178.348V32H175.164ZM184.716 32V0.690216H186.308V32H184.716ZM189.492 32V0.690216H191.084V32H189.492ZM182.912 44.4178L181.744 45.5322V48.9285H180.311V35.8208H181.904V35.927C181.833 36.0331 181.78 36.1216 181.744 36.1923C181.744 36.2985 181.744 36.4577 181.744 36.6699V44.0463L186.255 39.854C186.573 39.9247 186.927 39.9601 187.316 39.9601H187.794L184.026 43.5687L188.431 48.9285L186.626 48.9816L182.912 44.4178Z" fill="white"/>
<path d="M192.68 32V0.690216H195.864V32H192.68ZM200.64 32V0.690216H202.232V32H200.64ZM203.824 32V0.690216H208.601V32H203.824ZM197.616 36.6169H201.224C202.639 36.6169 203.665 36.9353 204.302 37.5721C204.974 38.1735 205.31 39.0403 205.31 40.1724C205.31 40.8799 205.08 41.5521 204.62 42.1889C204.161 42.8257 203.559 43.2503 202.816 43.4626L205.682 48.9285H204.143L201.383 43.5156H198.995V48.9285H197.616V36.6169ZM201.383 42.2951C202.232 42.2951 202.869 42.1005 203.294 41.7113C203.683 41.3575 203.878 40.8446 203.878 40.1724C203.878 39.5002 203.683 38.9518 203.294 38.5273C202.869 38.1381 202.232 37.9435 201.383 37.9435H198.995V42.2951H201.383Z" fill="white"/>
<path d="M210.197 32V0.690216H211.789V32H210.197ZM214.973 32V0.690216H216.565V32H214.973ZM218.157 32V0.690216H221.341V32H218.157ZM218.847 39.6948C220.12 39.6948 221.093 40.0309 221.765 40.703C222.438 41.3752 222.774 42.525 222.774 44.1524V48.9285H221.235V47.5487C220.704 48.6101 219.678 49.1408 218.157 49.1408C217.166 49.1408 216.388 48.9108 215.822 48.4509C215.256 47.991 214.973 47.3895 214.973 46.6466C214.973 46.0098 215.185 45.4614 215.61 45.0015C215.999 44.5416 216.547 44.1701 217.255 43.8871C217.927 43.6394 218.687 43.5156 219.537 43.5156C220.28 43.5156 220.952 43.551 221.553 43.6218C221.482 42.6312 221.217 41.9236 220.757 41.4991C220.297 41.0745 219.625 40.8623 218.741 40.8623C218.281 40.8623 217.856 40.9507 217.467 41.1276C217.042 41.3045 216.653 41.5521 216.299 41.8705L215.61 40.9684C216.459 40.1193 217.538 39.6948 218.847 39.6948ZM218.316 48.0794C219.307 48.0794 220.085 47.7787 220.651 47.1773C221.217 46.6112 221.518 45.7975 221.553 44.7362C220.952 44.63 220.315 44.577 219.643 44.577C218.652 44.577 217.856 44.7539 217.255 45.1076C216.689 45.426 216.406 45.9213 216.406 46.5935C216.406 47.5841 217.042 48.0794 218.316 48.0794Z" fill="white"/>
<path d="M227.713 32V0.690216H234.081V32H227.713ZM235.673 32V0.690216H240.449V32H235.673ZM242.041 32V0.690216H243.633V32H242.041ZM232.277 39.907H233.604V40.8092C233.816 40.4908 234.081 40.2254 234.4 40.0132C234.718 39.8009 235.054 39.6948 235.408 39.6948C235.797 39.6948 236.151 39.8186 236.469 40.0662C236.752 40.3139 236.929 40.6323 237 41.0215C237.177 40.6323 237.46 40.3139 237.849 40.0662C238.203 39.8186 238.61 39.6948 239.07 39.6948C239.636 39.6948 240.078 39.907 240.396 40.3316C240.679 40.7561 240.803 41.3222 240.768 42.0297V48.9285H239.494V42.5604C239.494 41.7821 239.423 41.2868 239.282 41.0745C239.14 40.8623 238.928 40.7561 238.645 40.7561C238.397 40.7561 238.167 40.8623 237.955 41.0745C237.743 41.2868 237.566 41.5698 237.424 41.9236C237.283 42.2774 237.212 42.6312 237.212 42.9849V48.9285H235.885V42.6665C235.885 41.9236 235.815 41.4283 235.673 41.1807C235.532 40.8976 235.266 40.7561 234.877 40.7561C234.7 40.7561 234.506 40.8446 234.293 41.0215C234.081 41.1983 233.904 41.4637 233.763 41.8175C233.657 42.1359 233.604 42.5073 233.604 42.9319V48.9285H232.277V39.907Z" fill="white"/>
<path d="M245.23 32V0.690216H246.822V32H245.23ZM250.006 32V0.690216H256.374V32H250.006ZM257.966 32V0.690216H259.558V32H257.966ZM257.806 48.0794C256.957 48.7516 256.002 49.0877 254.941 49.0877C253.95 49.0877 253.243 48.787 252.818 48.1856C252.394 47.5487 252.181 46.5582 252.181 45.2138C252.181 44.9661 252.199 44.577 252.234 44.0463L252.447 41.0745H250.43V39.907H252.5L252.659 37.519L254.198 37.2537H254.41V37.3598C254.339 37.4659 254.286 37.5721 254.251 37.6782C254.18 37.7843 254.145 37.9259 254.145 38.1027L253.933 39.907H256.904V41.0745H253.826L253.667 44.1524C253.632 44.6831 253.614 45.0192 253.614 45.1607C253.614 46.2221 253.738 46.9473 253.986 47.3365C254.233 47.6903 254.622 47.8672 255.153 47.8672C255.542 47.8672 255.914 47.7964 256.268 47.6549C256.586 47.5134 256.957 47.2834 257.382 46.965L257.806 48.0794Z" fill="white"/>
<path d="M262.746 32V0.690216H264.338V32H262.746ZM265.93 32V0.690216H269.114V32H265.93ZM272.298 32V0.690216H273.89V32H272.298ZM271.927 49.1408C270.582 49.1408 269.521 48.7339 268.743 47.9202C267.929 47.1065 267.522 45.9567 267.522 44.4708C267.522 43.4802 267.717 42.6135 268.106 41.8705C268.459 41.163 268.955 40.6323 269.592 40.2785C270.193 39.8894 270.883 39.6948 271.661 39.6948C272.758 39.6948 273.642 40.0485 274.315 40.7561C274.987 41.4991 275.323 42.5781 275.323 43.9932C275.323 44.1347 275.323 44.347 275.323 44.63H268.902C268.937 45.7268 269.238 46.5582 269.804 47.1242C270.37 47.6903 271.095 47.9733 271.98 47.9733C272.935 47.9733 273.713 47.6372 274.315 46.965L275.111 47.761C274.332 48.6809 273.271 49.1408 271.927 49.1408ZM273.89 43.5156C273.89 42.6665 273.678 41.9944 273.253 41.4991C272.829 41.0038 272.263 40.7561 271.555 40.7561C270.918 40.7561 270.352 40.9861 269.857 41.446C269.362 41.9059 269.061 42.5958 268.955 43.5156H273.89Z" fill="white"/>
<path d="M280.262 32V0.690216H283.446V32H280.262ZM289.814 32V0.690216H291.406V32H289.814ZM294.591 32V0.690216H296.183V32H294.591ZM288.01 44.4178L286.843 45.5322V48.9285H285.41V35.8208H287.002V35.927C286.931 36.0331 286.878 36.1216 286.843 36.1923C286.843 36.2985 286.843 36.4577 286.843 36.6699V44.0463L291.353 39.854C291.672 39.9247 292.026 39.9601 292.415 39.9601H292.892L289.125 43.5687L293.529 48.9285L291.725 48.9816L288.01 44.4178Z" fill="white"/>
<path d="M297.779 32V0.690216H299.371V32H297.779ZM300.963 32V0.690216H304.147V32H300.963ZM307.331 32V0.690216H308.923V32H307.331ZM306.959 49.1408C305.615 49.1408 304.554 48.7339 303.775 47.9202C302.962 47.1065 302.555 45.9567 302.555 44.4708C302.555 43.4802 302.749 42.6135 303.138 41.8705C303.492 41.163 303.988 40.6323 304.624 40.2785C305.226 39.8894 305.916 39.6948 306.694 39.6948C307.791 39.6948 308.675 40.0485 309.347 40.7561C310.02 41.4991 310.356 42.5781 310.356 43.9932C310.356 44.1347 310.356 44.347 310.356 44.63H303.935C303.97 45.7268 304.271 46.5582 304.837 47.1242C305.403 47.6903 306.128 47.9733 307.012 47.9733C307.968 47.9733 308.746 47.6372 309.347 46.965L310.143 47.761C309.365 48.6809 308.304 49.1408 306.959 49.1408ZM308.923 43.5156C308.923 42.6665 308.711 41.9944 308.286 41.4991C307.862 41.0038 307.295 40.7561 306.588 40.7561C305.951 40.7561 305.385 40.9861 304.89 41.446C304.394 41.9059 304.094 42.5958 303.988 43.5156H308.923Z" fill="white"/>
</svg>
