<svg width="16" height="16" viewBox="0 0 16 16" fill="none" xmlns="http://www.w3.org/2000/svg">
<rect width="16" height="16" rx="1" fill="#AA00FA"/>
<path d="M2 10V3.88785H2.62158V10H2ZM2.93236 10V3.88785H3.86473V10H2.93236ZM4.79709 10V3.88785H5.10788V10H4.79709ZM3.54358 11.1396H2.87021V10.9013H4.52774V11.1396H3.82329V13.3047H3.54358V11.1396ZM5.41947 10V3.88785H6.04105V10H5.41947ZM6.35183 10V3.88785H7.2842V10H6.35183ZM7.59498 10V3.88785H7.90577V10H7.59498ZM7.11844 13.3461C6.80766 13.3461 6.55557 13.2425 6.36219 13.0354L6.50723 12.7971L6.51759 12.766L6.54867 12.7764C6.54867 12.7833 6.55212 12.7971 6.55903 12.8178C6.55903 12.8316 6.56593 12.8489 6.57975 12.8696C6.58665 12.8834 6.60046 12.8972 6.62118 12.911C6.76622 13.0354 6.94578 13.0975 7.15988 13.0975C7.29801 13.0975 7.41542 13.0595 7.51211 12.9836C7.6088 12.9007 7.65714 12.804 7.65714 12.6935C7.65714 12.6175 7.63988 12.5519 7.60534 12.4967C7.57772 12.4483 7.52592 12.4 7.44995 12.3516C7.37398 12.3033 7.25657 12.2446 7.09772 12.1755C6.86291 12.0857 6.6937 11.9821 6.59011 11.8647C6.49342 11.7473 6.44507 11.6161 6.44507 11.4711C6.44507 11.2915 6.51068 11.1465 6.6419 11.036C6.77312 10.9255 6.94924 10.8702 7.17024 10.8702C7.30146 10.8702 7.42578 10.8978 7.54319 10.9531C7.65369 11.0083 7.75383 11.0808 7.84361 11.1706L7.6675 11.4089L7.64678 11.3882C7.64678 11.3813 7.64333 11.3709 7.63642 11.3571C7.63642 11.3364 7.62952 11.3191 7.6157 11.3053C7.6088 11.2846 7.59498 11.2673 7.57427 11.2535C7.51901 11.1983 7.4534 11.1568 7.37743 11.1292C7.30837 11.1085 7.22549 11.0981 7.1288 11.0981C7.00449 11.0981 6.9078 11.1326 6.83874 11.2017C6.76276 11.2708 6.72478 11.3537 6.72478 11.4503C6.72478 11.5263 6.73859 11.5919 6.76622 11.6472C6.80075 11.7024 6.85945 11.7542 6.94233 11.8026C7.02521 11.8578 7.14952 11.9165 7.31528 11.9787C7.54319 12.0754 7.70203 12.1721 7.79182 12.2687C7.87469 12.3723 7.91613 12.5001 7.91613 12.6521C7.91613 12.7695 7.88851 12.88 7.83326 12.9836C7.7711 13.0872 7.68131 13.1735 7.56391 13.2425C7.43959 13.3116 7.2911 13.3461 7.11844 13.3461ZM8.83894 10V3.88785H9.46052V10H8.83894ZM10.3929 10V3.88785H10.7037V10H10.3929ZM11.0145 10V3.88785H11.9468V10H11.0145ZM9.80239 10.9013H10.5068C10.7831 10.9013 10.9834 10.9634 11.1077 11.0878C11.2389 11.2052 11.3045 11.3744 11.3045 11.5954C11.3045 11.7335 11.2596 11.8647 11.1699 11.989C11.0801 12.1134 10.9627 12.1962 10.8176 12.2377L11.377 13.3047H11.0766L10.5379 12.248H10.0717V13.3047H9.80239V10.9013ZM10.5379 12.0098C10.7037 12.0098 10.828 11.9718 10.9109 11.8958C10.9868 11.8267 11.0248 11.7266 11.0248 11.5954C11.0248 11.4642 10.9868 11.3571 10.9109 11.2742C10.828 11.1983 10.7037 11.1603 10.5379 11.1603H10.0717V12.0098H10.5379Z" fill="black"/>
<path d="M13 3L15 1M15 1H13.5M15 1V2.5" stroke="black" stroke-width="0.2" stroke-linecap="round" stroke-linejoin="round"/>
</svg>
