<svg width="179" height="179" viewBox="0 0 179 179" fill="none" xmlns="http://www.w3.org/2000/svg">
<rect x="1" y="1" width="177" height="177" rx="10.1875" stroke="black" stroke-width="2"/>
<path d="M22.375 114.75V46.3703H29.3289V114.75H22.375ZM32.8058 114.75V46.3703H43.2366V114.75H32.8058ZM53.6674 114.75V46.3703H57.1444V114.75H53.6674ZM39.6438 127.499H32.1104V124.833H50.6541V127.499H42.773V151.721H39.6438V127.499ZM60.6303 114.75V46.3703H67.5842V114.75H60.6303ZM71.0611 114.75V46.3703H81.492V114.75H71.0611ZM84.9689 114.75V46.3703H88.4458V114.75H84.9689ZM79.6376 152.185C76.1607 152.185 73.3405 151.026 71.177 148.708L72.7996 146.042L72.9155 145.695L73.2632 145.811C73.2632 145.888 73.3018 146.042 73.3791 146.274C73.3791 146.429 73.4564 146.622 73.6109 146.854C73.6882 147.008 73.8427 147.163 74.0745 147.317C75.6971 148.708 77.706 149.403 80.1012 149.403C81.6465 149.403 82.96 148.978 84.0417 148.129C85.1234 147.201 85.6643 146.12 85.6643 144.883C85.6643 144.034 85.4711 143.3 85.0848 142.681C84.7757 142.141 84.1962 141.6 83.3463 141.059C82.4964 140.518 81.1829 139.861 79.4058 139.089C76.7788 138.084 74.8858 136.925 73.7268 135.612C72.6451 134.298 72.1042 132.83 72.1042 131.207C72.1042 129.199 72.8382 127.576 74.3063 126.34C75.7743 125.104 77.7446 124.485 80.2171 124.485C81.6851 124.485 83.0759 124.794 84.3894 125.413C85.6256 126.031 86.746 126.842 87.7504 127.846L85.7802 130.512L85.5484 130.28C85.5484 130.203 85.5097 130.087 85.4325 129.933C85.4325 129.701 85.3552 129.508 85.2007 129.353C85.1234 129.121 84.9689 128.928 84.7371 128.774C84.119 128.156 83.3849 127.692 82.535 127.383C81.7624 127.151 80.8352 127.035 79.7535 127.035C78.3627 127.035 77.281 127.421 76.5083 128.194C75.6584 128.967 75.2335 129.894 75.2335 130.976C75.2335 131.826 75.388 132.56 75.6971 133.178C76.0834 133.796 76.7401 134.375 77.6673 134.916C78.5945 135.534 79.9853 136.191 81.8396 136.886C84.3894 137.968 86.1665 139.05 87.1709 140.132C88.0981 141.291 88.5617 142.72 88.5617 144.42C88.5617 145.733 88.2527 146.97 87.6345 148.129C86.9392 149.288 85.9347 150.253 84.6212 151.026C83.2304 151.799 81.5692 152.185 79.6376 152.185ZM98.8857 114.75V46.3703H105.84V114.75H98.8857ZM116.27 114.75V46.3703H119.747V114.75H116.27ZM123.224 114.75V46.3703H133.655V114.75H123.224ZM109.664 124.833H117.545C120.636 124.833 122.877 125.528 124.267 126.919C125.735 128.233 126.469 130.126 126.469 132.598C126.469 134.144 125.967 135.612 124.963 137.002C123.958 138.393 122.645 139.32 121.022 139.784L127.281 151.721H123.92L117.893 139.9H112.678V151.721H109.664V124.833ZM117.893 137.234C119.747 137.234 121.138 136.809 122.065 135.959C122.915 135.187 123.34 134.066 123.34 132.598C123.34 131.13 122.915 129.933 122.065 129.005C121.138 128.156 119.747 127.731 117.893 127.731H112.678V137.234H117.893Z" fill="black"/>
<path d="M145.438 33.5625L167.812 11.1875M167.812 11.1875H151.031M167.812 11.1875V27.9688" stroke="black" stroke-width="2.2375" stroke-linecap="round" stroke-linejoin="round"/>
</svg>
